<?xml version="1.0" encoding="UTF-8" standalone="no"?>
<svg
   xmlns:dc="http://purl.org/dc/elements/1.1/"
   xmlns:cc="http://creativecommons.org/ns#"
   xmlns:rdf="http://www.w3.org/1999/02/22-rdf-syntax-ns#"
   xmlns:svg="http://www.w3.org/2000/svg"
   xmlns="http://www.w3.org/2000/svg"
   xmlns:sodipodi="http://sodipodi.sourceforge.net/DTD/sodipodi-0.dtd"
   xmlns:inkscape="http://www.inkscape.org/namespaces/inkscape"
   width="1280"
   height="640"
   viewBox="0 0 338.66667 169.33333"
   version="1.1"
   id="svg8"
   inkscape:version="1.0.1 (c497b03c, 2020-09-10)"
   sodipodi:docname="banner.svg"
   inkscape:export-filename="/Users/romain/Documents/dev/ephemere/ephemere-branding/png/banner.png"
   inkscape:export-xdpi="96"
   inkscape:export-ydpi="96">
  <defs
     id="defs2">
    <filter
       inkscape:collect="always"
       style="color-interpolation-filters:sRGB"
       id="filter28"
       x="-8.0422516e-07"
       width="1.0000016"
       y="-2.3627603e-06"
       height="1.0000047">
      <feGaussianBlur
         inkscape:collect="always"
         stdDeviation="7.1587357e-05"
         id="feGaussianBlur30" />
    </filter>
  </defs>
  <sodipodi:namedview
     id="base"
     pagecolor="#ffffff"
     bordercolor="#666666"
     borderopacity="1.0"
     inkscape:pageopacity="0.0"
     inkscape:pageshadow="2"
     inkscape:zoom="0.365625"
     inkscape:cx="640"
     inkscape:cy="320"
     inkscape:document-units="mm"
     inkscape:current-layer="layer1"
     inkscape:document-rotation="0"
     showgrid="false"
     units="px"
     inkscape:window-width="1440"
     inkscape:window-height="855"
     inkscape:window-x="0"
     inkscape:window-y="23"
     inkscape:window-maximized="1" />
  <metadata
     id="metadata5">
    <rdf:RDF>
      <cc:Work
         rdf:about="">
        <dc:format>image/svg+xml</dc:format>
        <dc:type
           rdf:resource="http://purl.org/dc/dcmitype/StillImage" />
        <dc:title></dc:title>
      </cc:Work>
    </rdf:RDF>
  </metadata>
  <g
     inkscape:groupmode="layer"
     id="layer3"
     inkscape:label="Layer 2">
    <rect
       style="fill:#ffffff;stroke-width:0.296278"
       id="rect132"
       width="338.66666"
       height="169.33333"
       x="7.1207683e-06"
       y="2.5431316e-06" />
  </g>
  <g
     inkscape:label="Layer 1"
     inkscape:groupmode="layer"
     id="layer1"
     style="filter:url(#filter28)">
    <g
       aria-label="ephemere"
       id="text12"
       style="font-style:normal;font-weight:normal;font-size:22.5778px;line-height:1.25;font-family:sans-serif;fill:#333333;fill-opacity:1;stroke:none;stroke-width:0.264583">
      <path
         d="m 171.5729,69.093326 q -0.79022,1.196623 -1.96427,1.715912 -1.15147,0.51929 -2.55129,0.51929 -1.19663,0 -2.16747,-0.406401 -0.97085,-0.4064 -1.67076,-1.12889 -0.69991,-0.745067 -1.08373,-1.73849 -0.36125,-1.016001 -0.36125,-2.235202 0,-1.174046 0.38383,-2.167469 0.38382,-0.993424 1.08373,-1.715913 0.69991,-0.745068 1.64818,-1.151468 0.94827,-0.428978 2.09973,-0.428978 1.19663,0 2.09974,0.428978 0.92569,0.4064 1.53529,1.106312 0.63218,0.677334 0.94827,1.557868 0.31609,0.880535 0.31609,1.783647 v 0.948267 h -8.76019 q 0,0.428979 0.15805,1.106313 0.18062,0.654756 0.63217,1.286934 0.45156,0.632179 1.19663,1.083735 0.76764,0.451556 1.96427,0.451556 1.03857,0 2.00942,-0.496712 0.97085,-0.496712 1.49014,-1.354668 z m -1.03858,-4.131738 q 0,-0.699912 -0.29351,-1.309512 -0.27094,-0.609601 -0.76765,-1.061157 -0.47413,-0.474134 -1.15146,-0.745067 -0.65476,-0.270934 -1.39983,-0.270934 -1.10631,0 -1.85138,0.451556 -0.72249,0.451556 -1.15147,1.038579 -0.42897,0.587023 -0.6096,1.151468 -0.18062,0.541867 -0.18062,0.745067 z"
         style="font-style:normal;font-variant:normal;font-weight:300;font-stretch:normal;font-size:22.5778px;font-family:Avenir;-inkscape-font-specification:'Avenir Light';fill:#333333;stroke-width:0.264583"
         id="path32" />
      <path
         d="m 174.63537,60.62665 h 1.35466 v 1.828802 h 0.0452 q 0.31609,-0.541867 0.79022,-0.92569 0.47414,-0.4064 1.016,-0.654756 0.56445,-0.270933 1.17405,-0.383822 0.6096,-0.135467 1.19662,-0.135467 1.19663,0 2.19005,0.4064 1.016,0.406401 1.73849,1.151468 0.74507,0.72249 1.15147,1.738491 0.4064,0.993423 0.4064,2.190046 0,1.196624 -0.4064,2.212625 -0.4064,0.993423 -1.15147,1.73849 -0.72249,0.72249 -1.73849,1.12889 -0.99342,0.406401 -2.19005,0.406401 -0.58702,0 -1.19662,-0.135467 -0.6096,-0.112889 -1.17405,-0.361245 -0.54186,-0.270933 -1.016,-0.654756 -0.47413,-0.4064 -0.79022,-0.948268 h -0.0452 v 6.976541 h -1.35466 z m 1.2192,5.215472 q 0,0.880535 0.33866,1.670758 0.33867,0.767645 0.92569,1.354668 0.58703,0.564445 1.37725,0.903112 0.79022,0.338667 1.71591,0.338667 0.94827,0 1.71592,-0.338667 0.76764,-0.338667 1.30951,-0.903112 0.54186,-0.587023 0.8128,-1.354668 0.29351,-0.790223 0.29351,-1.670758 0,-0.880534 -0.29351,-1.648179 -0.27094,-0.790223 -0.8128,-1.354668 -0.54187,-0.587023 -1.30951,-0.92569 -0.76765,-0.338667 -1.71592,-0.338667 -0.92569,0 -1.71591,0.338667 -0.79022,0.338667 -1.37725,0.92569 -0.58702,0.564445 -0.92569,1.354668 -0.33866,0.767645 -0.33866,1.648179 z"
         style="font-style:normal;font-variant:normal;font-weight:300;font-stretch:normal;font-size:22.5778px;font-family:Avenir;-inkscape-font-specification:'Avenir Light';fill:#333333;stroke-width:0.264583"
         id="path34" />
      <path
         d="m 188.73132,53.988777 h 1.35467 v 8.466675 h 0.0452 q 0.4064,-0.857956 1.35466,-1.467557 0.94827,-0.632178 2.21263,-0.632178 1.2192,0 1.98685,0.383822 0.76764,0.383823 1.19662,1.016001 0.45155,0.609601 0.6096,1.422402 0.18062,0.812801 0.18062,1.670757 v 6.208895 h -1.35467 v -6.141162 q 0,-0.632178 -0.11289,-1.219201 -0.11288,-0.6096 -0.4064,-1.083734 -0.27093,-0.474134 -0.79022,-0.745068 -0.49671,-0.293511 -1.30951,-0.293511 -0.74507,0 -1.4224,0.270934 -0.65476,0.248355 -1.15147,0.790223 -0.47413,0.519289 -0.76765,1.33209 -0.27093,0.790223 -0.27093,1.873957 v 5.215472 h -1.35467 z"
         style="font-style:normal;font-variant:normal;font-weight:300;font-stretch:normal;font-size:22.5778px;font-family:Avenir;-inkscape-font-specification:'Avenir Light';fill:#333333;stroke-width:0.264583"
         id="path36" />
      <path
         d="m 210.51079,69.093326 q -0.79023,1.196623 -1.96427,1.715912 -1.15147,0.51929 -2.55129,0.51929 -1.19663,0 -2.16747,-0.406401 -0.97085,-0.4064 -1.67076,-1.12889 -0.69991,-0.745067 -1.08373,-1.73849 -0.36125,-1.016001 -0.36125,-2.235202 0,-1.174046 0.38382,-2.167469 0.38383,-0.993424 1.08374,-1.715913 0.69991,-0.745068 1.64818,-1.151468 0.94827,-0.428978 2.09973,-0.428978 1.19663,0 2.09974,0.428978 0.92569,0.4064 1.53529,1.106312 0.63218,0.677334 0.94827,1.557868 0.31609,0.880535 0.31609,1.783647 v 0.948267 h -8.76019 q 0,0.428979 0.15804,1.106313 0.18063,0.654756 0.63218,1.286934 0.45156,0.632179 1.19663,1.083735 0.76764,0.451556 1.96427,0.451556 1.03857,0 2.00942,-0.496712 0.97084,-0.496712 1.49013,-1.354668 z m -1.03858,-4.131738 q 0,-0.699912 -0.29351,-1.309512 -0.27094,-0.609601 -0.76765,-1.061157 -0.47413,-0.474134 -1.15147,-0.745067 -0.65475,-0.270934 -1.39982,-0.270934 -1.10631,0 -1.85138,0.451556 -0.72249,0.451556 -1.15147,1.038579 -0.42898,0.587023 -0.6096,1.151468 -0.18062,0.541867 -0.18062,0.745067 z"
         style="font-style:normal;font-variant:normal;font-weight:300;font-stretch:normal;font-size:22.5778px;font-family:Avenir;-inkscape-font-specification:'Avenir Light';fill:#333333;stroke-width:0.264583"
         id="path38" />
      <path
         d="m 213.86676,63.561764 q 0,-0.293511 -0.0226,-0.699911 -0.0226,-0.428979 -0.0452,-0.857957 0,-0.428978 -0.0226,-0.790223 -0.0226,-0.383822 -0.0226,-0.587023 h 1.35467 q 0.0226,0.587023 0.0226,1.12889 0.0226,0.541868 0.0677,0.699912 h 0.0677 q 0.4064,-0.857956 1.35466,-1.467557 0.94827,-0.632178 2.21263,-0.632178 1.03858,0 1.89653,0.541867 0.85796,0.519289 1.24178,1.715913 0.49672,-1.174046 1.46756,-1.715913 0.99342,-0.541867 2.07716,-0.541867 1.2192,0 1.98684,0.383822 0.76765,0.383823 1.19663,1.016001 0.45155,0.609601 0.6096,1.422402 0.18062,0.812801 0.18062,1.670757 v 6.208895 h -1.35467 v -6.141162 q 0,-0.632178 -0.11289,-1.219201 -0.11288,-0.6096 -0.4064,-1.083734 -0.27093,-0.474134 -0.79022,-0.745068 -0.49671,-0.293511 -1.30951,-0.293511 -0.94827,0 -1.55787,0.361245 -0.6096,0.338667 -0.97085,0.880534 -0.33866,0.541867 -0.49671,1.174046 -0.13546,0.632178 -0.13546,1.196623 v 5.870228 h -1.35467 v -6.276628 q 0,-1.44498 -0.54187,-2.325514 -0.51929,-0.880534 -1.6256,-0.880534 -0.74507,0 -1.4224,0.270934 -0.65476,0.248355 -1.15147,0.790223 -0.47413,0.519289 -0.76765,1.33209 -0.27093,0.790223 -0.27093,1.873957 v 5.215472 h -1.35467 z"
         style="font-style:normal;font-variant:normal;font-weight:300;font-stretch:normal;font-size:22.5778px;font-family:Avenir;-inkscape-font-specification:'Avenir Light';fill:#333333;stroke-width:0.264583"
         id="path40" />
      <path
         d="m 242.30492,69.093326 q -0.79023,1.196623 -1.96427,1.715912 -1.15147,0.51929 -2.55129,0.51929 -1.19663,0 -2.16747,-0.406401 -0.97085,-0.4064 -1.67076,-1.12889 -0.69991,-0.745067 -1.08373,-1.73849 -0.36125,-1.016001 -0.36125,-2.235202 0,-1.174046 0.38382,-2.167469 0.38383,-0.993424 1.08374,-1.715913 0.69991,-0.745068 1.64818,-1.151468 0.94826,-0.428978 2.09973,-0.428978 1.19663,0 2.09974,0.428978 0.92569,0.4064 1.53529,1.106312 0.63218,0.677334 0.94827,1.557868 0.31609,0.880535 0.31609,1.783647 v 0.948267 h -8.76019 q 0,0.428979 0.15804,1.106313 0.18063,0.654756 0.63218,1.286934 0.45156,0.632179 1.19662,1.083735 0.76765,0.451556 1.96427,0.451556 1.03858,0 2.00943,-0.496712 0.97084,-0.496712 1.49013,-1.354668 z m -1.03858,-4.131738 q 0,-0.699912 -0.29351,-1.309512 -0.27094,-0.609601 -0.76765,-1.061157 -0.47413,-0.474134 -1.15147,-0.745067 -0.65475,-0.270934 -1.39982,-0.270934 -1.10631,0 -1.85138,0.451556 -0.72249,0.451556 -1.15147,1.038579 -0.42898,0.587023 -0.6096,1.151468 -0.18062,0.541867 -0.18062,0.745067 z"
         style="font-style:normal;font-variant:normal;font-weight:300;font-stretch:normal;font-size:22.5778px;font-family:Avenir;-inkscape-font-specification:'Avenir Light';fill:#333333;stroke-width:0.264583"
         id="path42" />
      <path
         d="m 245.66089,63.561764 q 0,-0.293511 -0.0226,-0.699911 -0.0226,-0.428979 -0.0451,-0.857957 0,-0.428978 -0.0226,-0.790223 -0.0226,-0.383822 -0.0226,-0.587023 h 1.35467 q 0.0226,0.587023 0.0226,1.12889 0.0226,0.541868 0.0677,0.699912 0.51929,-0.92569 1.33209,-1.512712 0.8128,-0.587023 1.98685,-0.587023 0.2032,0 0.38382,0.04516 0.2032,0.02258 0.4064,0.06773 l -0.15804,1.33209 q -0.27094,-0.09031 -0.51929,-0.09031 -0.88054,0 -1.53529,0.293511 -0.63218,0.270934 -1.06116,0.767645 -0.4064,0.496712 -0.6096,1.174046 -0.2032,0.654756 -0.2032,1.422402 v 5.689605 h -1.35467 z"
         style="font-style:normal;font-variant:normal;font-weight:300;font-stretch:normal;font-size:22.5778px;font-family:Avenir;-inkscape-font-specification:'Avenir Light';fill:#333333;stroke-width:0.264583"
         id="path44" />
      <path
         d="m 262.0164,69.093326 q -0.79023,1.196623 -1.96427,1.715912 -1.15147,0.51929 -2.5513,0.51929 -1.19662,0 -2.16746,-0.406401 -0.97085,-0.4064 -1.67076,-1.12889 -0.69991,-0.745067 -1.08374,-1.73849 -0.36124,-1.016001 -0.36124,-2.235202 0,-1.174046 0.38382,-2.167469 0.38382,-0.993424 1.08374,-1.715913 0.69991,-0.745068 1.64818,-1.151468 0.94826,-0.428978 2.09973,-0.428978 1.19662,0 2.09974,0.428978 0.92569,0.4064 1.53529,1.106312 0.63218,0.677334 0.94827,1.557868 0.31608,0.880535 0.31608,1.783647 v 0.948267 h -8.76018 q 0,0.428979 0.15804,1.106313 0.18062,0.654756 0.63218,1.286934 0.45156,0.632179 1.19662,1.083735 0.76765,0.451556 1.96427,0.451556 1.03858,0 2.00943,-0.496712 0.97084,-0.496712 1.49013,-1.354668 z m -1.03858,-4.131738 q 0,-0.699912 -0.29352,-1.309512 -0.27093,-0.609601 -0.76764,-1.061157 -0.47413,-0.474134 -1.15147,-0.745067 -0.65475,-0.270934 -1.39982,-0.270934 -1.10631,0 -1.85138,0.451556 -0.72249,0.451556 -1.15147,1.038579 -0.42898,0.587023 -0.6096,1.151468 -0.18062,0.541867 -0.18062,0.745067 z"
         style="font-style:normal;font-variant:normal;font-weight:300;font-stretch:normal;font-size:22.5778px;font-family:Avenir;-inkscape-font-specification:'Avenir Light';fill:#333333;stroke-width:0.264583"
         id="path46" />
    </g>
    <text
       xml:space="preserve"
       style="font-style:normal;font-weight:normal;font-size:10.5833px;line-height:1.25;font-family:sans-serif;fill:#333333;fill-opacity:1;stroke:none;stroke-width:0.264583"
       x="147.36371"
       y="98.990555"
       id="text16"><tspan
         sodipodi:role="line"
         x="147.36371"
         y="98.990555"
         style="font-style:normal;font-variant:normal;font-weight:normal;font-stretch:normal;font-family:'Avenir Next';-inkscape-font-specification:'Avenir Next';fill:#333333;stroke-width:0.264583"
         id="tspan18">End-to-end encrypted and</tspan><tspan
         sodipodi:role="line"
         x="147.36371"
         y="112.80457"
         style="font-style:normal;font-variant:normal;font-weight:normal;font-stretch:normal;font-family:'Avenir Next';-inkscape-font-specification:'Avenir Next';fill:#333333;stroke-width:0.264583"
         id="tspan22">ephemeral messaging app</tspan></text>
    <g
       id="g129"
       transform="matrix(0.26838948,0,0,0.26838948,62.516445,48.30884)">
      <g
         inkscape:label="Layer 1"
         id="layer1-4">
        <circle
           style="fill:#ff5555;stroke-width:0.373922"
           id="path56"
           cx="135.46666"
           cy="135.46666"
           r="135.46666" />
      </g>
      <g
         id="layer2"
         inkscape:label="Layer 2">
        <g
           aria-label="e"
           id="text52"
           style="font-style:normal;font-weight:normal;font-size:304.339px;line-height:1.25;font-family:sans-serif;fill:#ffffff;fill-opacity:1;stroke:none;stroke-width:1.5851">
          <path
             d="m 199.37785,179.29147 q -10.65186,16.12997 -26.47749,23.12977 -15.52129,6.99979 -34.3903,6.99979 -16.12997,0 -29.21655,-5.4781 -13.086573,-5.4781 -22.521081,-15.21695 -9.434509,-10.04318 -14.608272,-23.4341 -4.869424,-13.69525 -4.869424,-30.12956 0,-15.82563 5.173763,-29.21654 5.173763,-13.390917 14.608272,-23.129765 9.434508,-10.043187 22.216742,-15.521288 12.78224,-5.782441 28.30353,-5.782441 16.12997,0 28.30353,5.782441 12.47789,5.478101 20.69505,14.91261 8.52149,9.13017 12.78223,20.999393 4.26075,11.86922 4.26075,24.04278 v 12.78223 H 85.555073 q 0,5.78245 2.130373,14.91262 2.434711,8.82583 8.521491,17.34732 6.086783,8.52149 16.129963,14.60827 10.34753,6.08678 26.4775,6.08678 13.99959,0 27.08617,-6.69546 13.08657,-6.69546 20.08637,-18.26034 z m -13.99959,-55.69403 q 0,-9.43451 -3.95641,-17.65166 -3.65206,-8.217155 -10.34752,-14.303934 -6.39112,-6.391119 -15.52129,-10.043187 -8.82583,-3.652068 -18.86902,-3.652068 -14.91261,0 -24.95579,6.08678 -9.73885,6.08678 -15.521293,13.999593 -5.782441,7.912816 -8.217152,15.521286 -2.434712,7.30414 -2.434712,10.04319 z"
             style="font-style:normal;font-variant:normal;font-weight:300;font-stretch:normal;font-size:304.339px;font-family:Avenir;-inkscape-font-specification:'Avenir Light';fill:#ffffff;stroke-width:1.5851"
             id="path112" />
        </g>
      </g>
    </g>
  </g>
</svg>
