<svg version="1.1" xmlns="http://www.w3.org/2000/svg" viewBox="0 0 800 264" width="1600" height="528">
  <!-- svg-source:excalidraw -->
  
  <defs>
    <style>
      @font-face {
        font-family: "Virgil";
        src: url("https://excalidraw.com/FG_Virgil.woff2");
      }
      @font-face {
        font-family: "Cascadia";
        src: url("https://excalidraw.com/Cascadia.woff2");
      }
    </style>
  </defs>
  <rect x="0" y="0" width="800" height="264" fill="#ffffff"></rect><g transform="translate(10 44) rotate(0 83 68)"><path d="M-0.4700435418635607 -1.471809295937419 C61.07802688349039 1.7641710585542023, 125.6401334874332 2.1469329542107882, 166.37049656920135 0.23989191837608814 M0.3470271984115243 -0.6501054773107171 C49.08767777122557 -0.42080630896613, 97.173071119003 0.08982242109254002, 165.0741537073627 0.473608105443418 M167.9802611451596 1.1857379991561174 C166.30434049770236 34.12740304134786, 166.76375980779528 69.25818742252886, 166.65740823559463 137.75294038839638 M165.77196841035038 0.6871360233053565 C167.9022785608098 42.495861421339214, 166.89299117367716 83.24571745749563, 166.04143901262432 136.3025783887133 M167.6578741054982 135.2409465033561 C119.88939727898686 134.73982715440914, 73.9820025295019 138.10773843361065, 0.10589331202208996 135.57606461830437 M165.45003099832684 136.4463202347979 C114.7379755154252 136.15773779442534, 63.5418664207682 136.36674031903968, -0.525111093185842 136.36242082621902 M1.673330007120967 137.31277373619378 C0.3958617442846297 90.67368440143764, 0.3661643856763839 42.69893413223326, -0.8473416585475206 1.9708002526313066 M0.9240921596065164 136.85263636615127 C0.3061192288622261 91.58852720241993, 0.7317893460020424 46.9175872510299, -0.6675803503021598 -0.7710894355550408" stroke="#087f5b" stroke-width="1" fill="none"></path></g><g transform="translate(39 55) rotate(0 45 25.5)"><text x="0" y="18.5" font-family="Virgil, Segoe UI Emoji" font-size="20px" fill="#000000" text-anchor="start" style="white-space: pre;" direction="ltr">Ephemere</text><text x="0" y="44" font-family="Virgil, Segoe UI Emoji" font-size="20px" fill="#000000" text-anchor="start" style="white-space: pre;" direction="ltr">(browser)</text></g><g transform="translate(624 44.5) rotate(0 83 66)"><path d="M0.4168441276997328 1.4828881938010454 C35.82562857139856 -1.1094618028216063, 70.37454782649876 1.41450874151662, 164.29744237475097 -0.15912839584052563 M-0.25405995454639196 0.27193409111350775 C39.65010851062834 -1.0959154200367627, 78.2842126218602 -2.2927623522095377, 165.0467569688335 0.005642562173306942 M167.4738268237561 -0.9053904693573713 C166.6097288935259 43.880321421474214, 168.57765879321843 90.33647589348256, 167.76634943298995 131.45347985811532 M166.14216993842274 0.6850976040586829 C166.4128907928616 31.78466096986085, 166.37166866756976 64.46457616519183, 165.42716445121914 132.65522479917854 M164.8519898634404 132.40269813127816 C108.92722788210958 130.6732072444074, 54.591209110617626 132.09565725041554, -0.8960167784243822 132.37408867664635 M165.54438985977322 131.24292111303657 C101.67861110121011 130.68333465745673, 38.35069035198538 131.86686835577711, -0.5612854501232505 132.19003710057586 M-0.25610083527863026 133.75658026523888 C0.6118824189528823 102.19445517212152, -0.7874781781807542 71.55142988674342, -1.0459184665232897 0.4697024542838335 M0.9232113817706704 132.33660945203155 C-0.2765811231732369 85.67219030801206, -1.7386807051301003 40.415942817740145, -0.5954421004280448 -0.5856297621503472" stroke="#087f5b" stroke-width="1" fill="none"></path></g><g transform="translate(662 53.5) rotate(0 45 25.5)"><text x="0" y="18.5" font-family="Virgil, Segoe UI Emoji" font-size="20px" fill="#000000" text-anchor="start" style="white-space: pre;" direction="ltr">Ephemere</text><text x="0" y="44" font-family="Virgil, Segoe UI Emoji" font-size="20px" fill="#000000" text-anchor="start" style="white-space: pre;" direction="ltr">(browser)</text></g><g transform="translate(326 37) rotate(0 73.5 73.5)"><path d="M68.9484096628511 -0.6060934741028632 C79.01218008578098 -2.4398289092080994, 91.65427818101425 0.753498772441727, 101.69417381469084 5.1482298221783935 C111.73406944836744 9.54296087191506, 121.94281050484973 17.583698496630973, 129.18778346491064 25.762292824317136 C136.43275642497156 33.9408871520033, 142.29272284830844 43.738952558173004, 145.1640115750563 54.21979578829536 C148.03530030180414 64.7006390184177, 148.620460516344 77.91423462159523, 146.41551582539768 88.64735220505125 C144.21057113445136 99.38046978850727, 138.9337151543577 109.95571558711144, 131.93434342937837 118.61850128903144 C124.93497170439902 127.28128699095144, 114.38483026457979 135.99208250143766, 104.41928547552156 140.62406641657122 C94.45374068646333 145.25605033170478, 82.99585618619233 146.52866728551567, 72.14107469502902 146.4104047798328 C61.28629320386571 146.2921422741499, 48.807025555781074 144.88149343266966, 39.29059652854172 139.9144913824739 C29.774167501302365 134.94748933227814, 21.319996304101764 125.39611279673301, 15.042500531592893 116.60839247865819 C8.765004759084022 107.82067216058337, 3.5176702313832537 97.67653289068426, 1.6256218934884998 87.188169474025 C-0.2664264444062543 76.69980605736575, 0.7610790711586581 64.18570154895474, 3.6902105042243676 53.67821197870268 C6.619341937290077 43.170722408450615, 12.153528546755918 32.37601433359366, 19.200410491882757 24.14323205251263 C26.247292437009595 15.9104497714316, 36.40160263512644 8.306204705099844, 45.97150217498539 4.281518292216489 C55.54140171484434 0.25683187933313434, 70.16155106231484 0.33667697707307315, 76.61980773103647 -0.004886424787500232 C83.0780643997581 -0.3464498266480736, 84.79752936533929 0.8823104274710569, 84.72104218731519 2.232137881053049 M44.213110767430024 4.838044990582688 C53.26944325948994 -0.22597812458414523, 66.23850553285456 0.2358576974524288, 76.88292772822116 0.9197328999782997 C87.52734992358776 1.6036081025041704, 98.85415671193945 3.7612957963603693, 108.07964393962962 8.941296205737913 C117.30513116731979 14.121296615115458, 125.83703747023307 23.10865707514121, 132.2358510943622 31.999735356243562 C138.63466471849134 40.890813637345914, 144.47548072482542 51.57812062219601, 146.4725256844044 62.28776589235203 C148.46957064398336 72.99741116250804, 147.33179480556365 85.86213214277979, 144.218120851836 96.25760697717966 C141.10444689810836 106.65308181157954, 135.52173134312952 117.00595191630813, 127.79048196203848 124.66061489875126 C120.05923258094747 132.3152778811944, 108.36039992777395 138.5626737247216, 97.83062456528988 142.18558487183847 C87.30084920280581 145.80849601895534, 75.35408983909895 147.6416084523259, 64.61182978713404 146.39808178145245 C53.86956973516914 145.154555110579, 42.65311058680181 140.5710410127228, 33.377064253500464 134.7244248465977 C24.10101792019912 128.87780868047264, 14.692541575239119 120.47634384765811, 8.95555178732598 111.31838478470203 C3.2185619994128416 102.16042572174595, -0.6874946946088738 90.69567864497047, -1.0448744739783677 79.7766704688612 C-1.4022542533478617 68.85766229275193, 2.653825113430199 56.092894597695306, 6.811273111109017 45.80433572804641 C10.968721108787836 35.515776858397516, 17.78279600794853 24.83867445358939, 23.89981351209454 18.045317250967813 C30.01683101624055 11.251960048346234, 40.072291222221004 6.850186267695416, 43.51337813598508 5.04419251231694 C46.95446504974915 3.2381987569384636, 44.084116755421796 5.718864040670965, 44.546334994679 7.209354718696957" stroke="#c92a2a" stroke-width="1" fill="none"></path></g><g transform="translate(357 54) rotate(0 44 38.5)"><text x="0" y="17.666666666666668" font-family="Virgil, Segoe UI Emoji" font-size="20px" fill="#000000" text-anchor="start" style="white-space: pre;" direction="ltr">Ephemere</text><text x="0" y="43.333333333333336" font-family="Virgil, Segoe UI Emoji" font-size="20px" fill="#000000" text-anchor="start" style="white-space: pre;" direction="ltr">Sync</text><text x="0" y="69" font-family="Virgil, Segoe UI Emoji" font-size="20px" fill="#000000" text-anchor="start" style="white-space: pre;" direction="ltr">(server)</text></g><g><g transform="translate(187.90476190476193 90.23887629362389) rotate(0 66.97805510094327 -0.8356457868961513)"><path d="M0.14047447331249718 0.8433012675493956 C22.733078958419874 0.45278228265549775, 112.86239464445867 -2.156215351198811, 135.20102535942445 -2.514592841341732 M-1.2449151575379074 0.24043048767372976 C21.272800688715442 0.060425380052437805, 112.16160944023065 -0.4788086416507249, 134.56560998115563 -1.030317254978804" stroke="#c92a2a" stroke-width="1" fill="none"></path></g><g transform="translate(187.90476190476193 90.23887629362389) rotate(0 66.97805510094327 -0.8356457868961513)"><path d="M107.92497678513236 10.611773953094545 C113.95103745118665 5.984144643617917, 123.54882639997828 2.8832412952170507, 134.2074390862497 -2.297585258874683 M107.48704941703535 9.419788542456391 C113.96064156886341 6.4608387486838215, 123.05409478838838 3.63280960530098, 133.56690292417878 -1.6186645847369117" stroke="#c92a2a" stroke-width="1" fill="none"></path></g><g transform="translate(187.90476190476193 90.23887629362389) rotate(0 66.97805510094327 -0.8356457868961513)"><path d="M107.64108558255649 -9.907470871482683 C113.71460276941995 -8.986005399533674, 123.3891700572501 -6.537481637615903, 134.2074390862497 -2.297585258874683 M107.20315821445948 -11.099456282120837 C113.88138235506256 -8.206545439890252, 123.0558323456587 -5.180245317238887, 133.56690292417878 -1.6186645847369117" stroke="#c92a2a" stroke-width="1" fill="none"></path></g></g><g><g transform="translate(486.44282562544436 89.039132515127) rotate(0 62.75379976426075 0.358735127337269)"><path d="M0.2871630739420652 -0.7512577425688505 C21.547532521290115 -0.628273222163413, 105.44429923346902 1.1152566968644957, 126.5288145700993 1.3844627596283317 M-1.021215041577816 1.4687279972434046 C20.17483779209607 1.2144538520871662, 104.398991038489 0.2233768160636525, 125.60046104745585 -0.22842876219805475" stroke="#c92a2a" stroke-width="1" fill="none"></path></g><g transform="translate(486.44282562544436 89.039132515127) rotate(0 62.75379976426075 0.358735127337269)"><path d="M96.32359702736898 10.53980300190192 C105.1300790499537 8.625367193325228, 110.25663131946695 4.520215296866355, 124.18155209192652 -0.38262111859079595 M98.24796569478525 9.739747852890606 C107.59437537705895 6.41200867051248, 116.90796577606915 3.8184352296945097, 125.3785821770655 -0.5433813750525951" stroke="#c92a2a" stroke-width="1" fill="none"></path></g><g transform="translate(486.44282562544436 89.039132515127) rotate(0 62.75379976426075 0.358735127337269)"><path d="M95.99864451203933 -9.978832631312596 C104.98518206733412 -7.505455489579312, 110.18123620675563 -7.22201681603498, 124.18155209192652 -0.38262111859079595 M97.92301317945561 -10.77888778032391 C107.22755507371164 -6.943731930740059, 116.65456632295394 -2.375517143018487, 125.3785821770655 -0.5433813750525951" stroke="#c92a2a" stroke-width="1" fill="none"></path></g></g><g><g transform="translate(316.567069678494 146.83392750726586) rotate(0 -64.24674994772715 -1.4426918301147396)"><path d="M0.856262845918536 -0.1361646663397551 C-20.78953207352026 -0.4417491315358954, -107.11736293774165 -2.5215089030832436, -128.81929761242947 -2.7492189938897353 M-0.15333788931369785 -1.253255061507225 C-21.97991116673513 -1.3509577065014917, -107.71117103133419 -1.271994707834759, -129.3497627413728 -1.6714582170868382" stroke="#c92a2a" stroke-width="1" fill="none"></path></g><g transform="translate(316.567069678494 146.83392750726586) rotate(0 -64.24674994772715 -1.4426918301147396)"><path d="M-101.31033841350458 -10.396308084785801 C-113.58545017265968 -7.188873046926922, -122.47356637918921 -4.651911940248262, -131.06533015322768 -1.8259958631867632 M-100.44556685087613 -11.008208446971935 C-110.57879255637224 -8.985286700110038, -118.56835258434526 -5.120484699147105, -128.87011881441705 -0.7794601356187925" stroke="#c92a2a" stroke-width="1" fill="none"></path></g><g transform="translate(316.567069678494 146.83392750726586) rotate(0 -64.24674994772715 -1.4426918301147396)"><path d="M-101.46307370143955 10.12433211764597 C-113.52233921844079 5.3695719826783765, -122.35120085482352 -0.05457223720010873, -131.06533015322768 -1.8259958631867632 M-100.5983021388111 9.512431755459836 C-110.53818971036124 5.057689355078372, -118.47953666737574 2.444858743625482, -128.87011881441705 -0.7794601356187925" stroke="#c92a2a" stroke-width="1" fill="none"></path></g></g><g><g transform="translate(610.3532934131737 146.03651961342348) rotate(0 -63.72053006191038 0.0008279651100906449)"><path d="M1.1650022495537995 -0.9764117885380983 C-20.297164253804365 -0.9875562741839492, -107.10966086940607 -1.299131518345875, -128.60606237337458 -1.0679904662719992 M0.317489701230079 1.1253680771403016 C-20.809981443255673 1.323891721773038, -104.9940813850588 0.4381574079537866, -126.51016621133778 -0.024352787592920366" stroke="#c92a2a" stroke-width="1" fill="none"></path></g><g transform="translate(610.3532934131737 146.03651961342348) rotate(0 -63.72053006191038 0.0008279651100906449)"><path d="M-99.7970743424844 -11.819767724152943 C-108.71577872661935 -7.134750306411464, -115.14812543385852 -2.2914631681816537, -126.07650996400508 0.9963622087896737 M-97.68044095985852 -9.809754990402897 C-105.43603770716676 -7.105384973871728, -112.5449162715835 -4.441473687104924, -126.80415655607823 0.7677162461266789" stroke="#c92a2a" stroke-width="1" fill="none"></path></g><g transform="translate(610.3532934131737 146.03651961342348) rotate(0 -63.72053006191038 0.0008279651100906449)"><path d="M-100.10265832680844 8.699165503828581 C-108.75425319080367 6.940089410560287, -115.09067360560805 5.342249754690033, -126.07650996400508 0.9963622087896737 M-97.98602494418256 10.709178237578627 C-105.59867519960297 8.354325030102338, -112.63217245368838 5.956635733488346, -126.80415655607823 0.7677162461266789" stroke="#c92a2a" stroke-width="1" fill="none"></path></g></g><g><g transform="translate(243 128) rotate(0 9.671145322842165 -5.489201370518288)"><path d="M0.5913981545716525 -0.6196806717664003 C0.6145760763436556 -2.7648854820678634, -0.3243087739994128 -10.442163058991234, 0.9942931640893222 -12.674676244333387 C2.3128951021780573 -14.90718942967554, 7.2803127675006785 -13.889066641405226, 8.503009783104062 -14.014759783819319 C9.725706798707446 -14.140452926233412, 6.797486061727008 -13.650314375633995, 8.330475257709622 -13.428835098817945 C9.863464453692238 -13.207355822001896, 16.508107104773323 -15.495278820271293, 17.700944958999752 -12.685884122923017 C18.89378281322618 -9.876489425574741, 15.796066684400042 0.9015893410891294, 15.487502383068204 3.4275330852717163 C15.178938081736366 5.953476829454303, 17.91908371336758 2.823261299853524, 15.849559151008725 2.4697783421725035 C13.780034588649869 2.116295384491483, 5.579538562769691 1.772630122428139, 3.0703550089150666 1.3066353391855956 C0.5611714550604425 0.8406405559430521, 1.1619730620334545 -0.09832258311410735, 0.7944578278809786 -0.3261903572827577 M-0.5572565436176955 1.669383030217141 C-0.6799315017275511 -0.8701865572916962, -0.8581897493017216 -12.230721876739214, 0.5682516116090119 -14.62645602138713 C1.9946929725197455 -17.022190166035045, 6.637621254740904 -13.051079068500549, 8.001391621846706 -12.705021837670357 C9.365161988952508 -12.358964606840164, 6.795617743351807 -12.645910664914796, 8.750873814243823 -12.550112636405974 C10.706129885135839 -12.454314607897151, 18.41962723117943 -14.657257071255396, 19.732928047198804 -12.130233666617423 C21.04622886321818 -9.60321026197945, 17.183913430788863 0.3618842759542167, 16.63067871036008 2.6120277914218604 C16.077443989931297 4.862171306889504, 18.315884585995228 1.6181839089406032, 16.413519724626095 1.370627426188439 C14.511154863256962 1.123070943436275, 8.028801805196952 1.0586053286803265, 5.216489542145283 1.1266888949088751 C2.4041772790936133 1.1947724611374237, 0.6711540613758069 2.057696671566615, -0.4603538536839187 1.7791288235597311" stroke="#000000" stroke-width="1" fill="none"></path></g></g><g><g transform="translate(246 112) rotate(0 7.3140445660241085 -2.5219026300657674)"><path d="M-0.06132702939212331 -1.117035787180066 C-0.04208625666797172 -1.6456956196576358, -1.6290427775432668 -2.423914791022738, 0.3655170310288667 -3.9273952055722474 C2.360076839601 -5.430875620121757, 9.275789208089313 -11.479136320824425, 11.906031822040678 -10.137918274477125 C14.536274435992043 -8.796700228129824, 15.543990817541877 1.88075356396536, 16.146972714737057 4.119913072511554 M-1.5526624491624534 0.9109164792113007 C-1.6813415595702828 0.5715779828839005, -2.5854091047060987 -1.242893268087258, -0.3906319913081826 -2.8768524372763933 C1.8041451220897335 -4.510811606465529, 8.80572282663857 -10.253435329614828, 11.616000231225044 -8.892838535923511 C14.426277635811518 -7.532241742232194, 15.496537495969486 3.25146794297422, 16.471032436210663 5.28672832487151" stroke="#000000" stroke-width="1" fill="none"></path></g></g><g><g transform="translate(251 122) rotate(0 -0.5328991847590032 -0.046723098680359954)"><path d="M0.493135840818286 0.9601721394807099 C0.37286910526454453 0.7645802248269318, -0.11334287412464614 -0.7738768707960844, -0.33065512664616103 -1.053618336841464 M-0.7071065720915795 0.41865856736898444 C-1.0485346326231957 0.32474864572286627, -1.8464667519927025 -0.03658543974161136, -1.4522945317626 -0.06934271246194834" stroke="#000000" stroke-width="1" fill="none"></path></g></g><g><g transform="translate(535.5 129.5) rotate(0 8.817020491984465 -5.118854046466964)"><path d="M0.4676702130585908 0.5088545512408018 C0.29139897711575025 -1.646642312283317, -2.3928578825046616 -11.376179715866844, -1.0819570552557707 -13.749014251306653 C0.22894377199312044 -16.12184878674646, 6.9622687249133985 -13.793046372011304, 8.333075176551938 -13.728152661398052 C9.703881628190478 -13.663258950784801, 5.391909975682696 -13.413563820595543, 7.142881654575467 -13.35965198762715 C8.893853333468238 -13.305740154658755, 17.49414936589698 -16.249292120213312, 18.838905249908567 -13.40468166358769 C20.183661133920154 -10.56007120696207, 15.620065183316667 1.1331305455416438, 15.211416958644985 3.708010752126574 C14.802768733973304 6.282890958711505, 18.244563840702178 2.4744878680755695, 16.387015901878478 2.044599575921893 C14.529467963054778 1.614711283768217, 6.737213209147255 1.4854854137947162, 4.066129325702787 1.1286809992045164 C1.395045442258318 0.7718765846143165, 1.1997426180789867 0.27591729077200106, 0.36051260121166706 -0.09622691161930552 M-0.7459416544251145 -0.2696007546968757 C-0.5627765780501068 -2.2148657233702638, -0.35272713977222625 -10.605097278474519, 1.0619700271077455 -12.60482148202136 C2.4766671939877174 -14.604545685568203, 6.7626040897953015 -12.29464815767482, 7.742241346854716 -12.267945975977927 C8.721878603914131 -12.241243794281035, 5.262114212134232 -12.284866068481156, 6.9397935694642365 -12.44460839184001 C8.61747292679424 -12.604350715198864, 16.263341679393 -15.80712735366697, 17.808317490834742 -13.226399916131049 C19.353293302276484 -10.645672478595127, 16.30551114163672 0.7149846127443014, 16.209648438114673 3.0397562333755195 C16.113785734592625 5.364527854006738, 19.422241780180485 1.0863044254792233, 17.233141269702465 0.7222298076562583 C15.044040759224444 0.35815518983329336, 6.134255640922735 1.2307096480143567, 3.0750453752465545 0.8553085264377296 C0.01583510957037415 0.4799074048611025, -0.4912473656547568 -1.6415875207570692, -1.122120324354619 -1.5301769218035042" stroke="#000000" stroke-width="1" fill="none"></path></g></g><g><g transform="translate(538.5 113.5) rotate(0 7.196237315987048 -3.0684310103386565)"><path d="M0.5088545512408018 -1.0819570552557707 C0.5200243543833494 -1.6043895613402128, -2.5428463825335106 -1.0377312750866017, -0.749014251306653 -2.666924823448062 C1.0448178799202048 -4.296118371809523, 8.54028696132203 -12.108090024317304, 11.271847338601948 -10.857118345424533 C14.003407715881865 -9.606146666531762, 14.91976951273779 2.4941493658969796, 15.64034801237285 4.838905249908566 M-0.6831355386972429 0.9644115453958513 C-0.21412287771701827 0.024569721817970347, -0.3189596023162209 -2.7889634062846502, 1.5697078031301497 -4.61463510453701 C3.4583752085765203 -6.44030680278937, 8.294081900318464 -11.21258972744147, 10.64886889398098 -9.989618644118309 C13.003655887643497 -8.766647560795148, 14.544600006143252 0.5268965409199398, 15.698429765105248 2.7231913954019547" stroke="#000000" stroke-width="1" fill="none"></path></g></g><g><g transform="translate(543.5 123.5) rotate(0 -0.2655401469301637 -0.1179291179962263)"><path d="M-1.0819570552557707 -0.749014251306653 C-1.1043895613402128 -0.7885154534131288, 0.29560205824673164 0.20695362798869615, 0.33307517655193797 0.2718473386019469 M0.5508767613954841 1.4721493214182555 C0.3586459008045494 1.0062777364067732, -0.6128257301263511 -1.5908189290948214, -0.44010581938549875 -1.708007557410747" stroke="#000000" stroke-width="1" fill="none"></path></g></g><g><g transform="translate(67.5 158.5) rotate(0 8.393948273192706 -5.4056151731873285)"><path d="M-0.17199754826724534 -0.8936524081975221 C-0.259600342437625 -2.934796473259727, -1.1302314848949513 -11.137340697521964, 0.10460389740765086 -13.265268235281109 C1.339439279710253 -15.393195773040254, 5.960523250574867 -13.848838167265058, 7.237014745548367 -13.661217634752393 C8.513506240521867 -13.47359710223973, 5.8661612817396716 -12.42876914429168, 7.763552867248654 -12.139545040205121 C9.660944452757636 -11.850320936118562, 17.317969229693215 -14.640646812195579, 18.621364258602263 -11.925873010233044 C19.92475928751131 -9.21109920827051, 16.13772850719591 1.659437520429492, 15.583923040702938 4.149097771570086 C15.030117574209967 6.638758022710681, 17.208548652008176 3.385314419989784, 15.298531459644437 3.012088496610522 C13.388514267280698 2.63886257323126, 6.845700660223763 2.283236327891548, 4.123819886520505 1.9097422312945127 C1.401939112817248 1.536248134697477, -0.16588301373024772 0.9610442272077004, -1.0327531825751066 0.771123917028308 M-1.7214349904470145 1.25157613215968 C-2.013050540369004 -0.5193008188592889, -2.697221883417418 -9.020867775498578, -0.7885245200805366 -11.867108807582408 C1.1201728432563447 -14.713349839666238, 8.284942241429041 -15.429730645436793, 9.730749189574272 -15.825870060343295 C11.176556137719503 -16.2220094752498, 6.595347453871121 -14.443054187117765, 7.886317168790847 -14.243945297021419 C9.177286883710572 -14.044836406925073, 15.994666971682259 -17.62394325893993, 17.476567479092626 -14.631216719765217 C18.958467986502995 -11.6384901805905, 17.094947710552564 0.9076027494482699, 16.77772021325305 3.7124139380268755 C16.46049271595354 6.5172251266054815, 17.842318617422134 2.4753149171484012, 15.573202495295554 2.1976504117064177 C13.304086373168975 1.9199859062644342, 5.689699003814409 2.4472797920120257, 3.1630234804935755 2.046426905374974 C0.6363479571727417 1.645574018737922, 1.0861735458361608 0.013231057307372535, 0.4131493553705514 -0.20746690811589352" stroke="#000000" stroke-width="1" fill="none"></path></g></g><g><g transform="translate(75.5 152.5) rotate(0 0.12439211877062917 -0.6433422097731523)"><path d="M0.10460389740765086 -0.26526823528110977 C0.006105946376919677 -0.05986243970692154, -0.7061434160917996 0.15116183273494244, -0.7629852544516325 0.3387823652476072 M-1.299617785792798 -1.4501380041427911 C-0.9978484499268234 -1.5425264176912608, 1.5195124215073885 -1.6759014168567956, 1.5484020233340563 -1.6059316417761147" stroke="#000000" stroke-width="1" fill="none"></path></g></g><g><g transform="translate(84 142) rotate(0 7.444225520740446 -7.379839171096677)"><path d="M0.5506902169436216 -0.03253791444003573 C0.4504151653498411 -1.3428867311527333, -3.08993639635543 -4.419788472975294, -1.0376679349690676 -6.868888891860843 C1.014600526417295 -9.317989310746391, 9.990621009593209 -15.33324592622618, 12.864300985261798 -14.72714042775333 C15.737980960930386 -14.12103492928048, 15.852561802789568 -5.155884211386244, 16.204411919042467 -3.2322559010237457 M-0.6193361485004425 -1.0952242648601533 C-0.3202768909931183 -2.7991384621461233, -0.9782718733946485 -6.281600633064906, 1.1295109355449675 -8.397630308866502 C3.2372937444845835 -10.513659984668097, 9.455841323932013 -14.293452477852503, 12.027360705137253 -13.791402319669723 C14.598880086342493 -13.289352161486944, 15.792108248472212 -7.289404664436977, 16.558627222776412 -5.3853293597698215" stroke="#000000" stroke-width="1" fill="none"></path></g></g><g><g transform="translate(689.75 155.75) rotate(0 8.534890788075359 -4.731056666471659)"><path d="M0.40901060812175283 0.9510646451264619 C0.2362261723726989 -1.2931000641236705, -1.9838348874201377 -10.227183990801374, -0.7585151005536317 -12.882418824359775 C0.4668046863128743 -15.537653657918176, 6.1349133602033055 -15.063856292888524, 7.760929329320788 -14.980344356223942 C9.38694529843827 -14.89683241955936, 7.326219311480721 -12.767615514124433, 8.997580714151264 -12.381347204372286 C10.668942116821807 -11.99507889462014, 16.46485103281836 -15.109128158415357, 17.789097745344044 -12.662734497711062 C19.11334445786973 -10.216340837006767, 17.27466513228913 -0.07273260466754428, 16.943060989305376 2.2970147598534822 C16.611456846321623 4.666762124374509, 18.02444009296596 1.6810608932127555, 15.799472887441516 1.5557496894150973 C13.57450568191707 1.430438485617439, 6.423709606255094 1.9530702063192924, 3.5932577561587093 1.5451475370675325 C0.7628059060623249 1.1372248678157726, -0.41473742810388414 -0.6903920025875171, -1.1832382131367922 -0.8917863260954618 M-0.8353975519537926 0.404769638478756 C-0.6469151052832603 -1.6757137949268022, 0.271032927731673 -8.852878797749678, 1.5552190080285073 -11.283263455927372 C2.839405088325342 -13.713648114105066, 5.50088715861241 -13.622633287012578, 6.869718929827213 -14.177538310587407 C8.238550701042016 -14.732443334162236, 8.211935949226222 -14.959794901112716, 9.768209635317326 -14.612693597376346 C11.324483321408431 -14.265592293639976, 15.303661721448103 -15.288377311925094, 16.207361046373844 -12.094930488169194 C17.111060371299583 -8.901483664413293, 15.168776063819726 1.9260433086752893, 15.190405584871769 4.547987345159054 C15.212035105923812 7.169931381642819, 18.476553064882754 4.146328288813432, 16.3371381726861 3.6367337307333947 C14.197723280489445 3.127139172653357, 5.04616264651219 1.9437764566143356, 2.353916231691837 1.4904199966788294 C-0.3383301831285159 1.0370635367433232, 0.7066705639163654 1.1547908068696657, 0.183659683763981 0.9165949711203574" stroke="#000000" stroke-width="1" fill="none"></path></g></g><g><g transform="translate(697.75 149.75) rotate(0 0.06956318065419964 0.3536440014564164)"><path d="M0.9510646451264619 -0.7585151005536317 C0.8735666025429963 -0.8665286470204591, 0.43948267586529255 -0.5317533064633608, 0.11758117564022541 -0.23907067067921162 M-0.008765145521610895 1.4576605263166131 C-0.28497094927355643 1.4973076161555947, -1.0034077882580459 1.552652995865792, -0.7687341707758606 1.1728424784354865" stroke="#000000" stroke-width="1" fill="none"></path></g></g><g><g transform="translate(705.25 143.25) rotate(0 7.006614459586217 -7.68217119538636)"><path d="M-0.7585151005536317 0.11758117564022541 C-0.8665286470204591 -1.537653657918175, -2.6984199731300276 -6.73052295955519, -0.23907067067921162 -8.980344356223942 C2.2202786317716043 -11.230165752892693, 11.32621931148072 -14.267615514124433, 13.997580714151264 -13.381347204372286 C16.668942116821807 -12.49507889462014, 15.298184366151691 -5.109128158415357, 15.789097745344042 -3.6627344977110625 M1.044125742316246 -0.8662926524877549 C0.7213837951421738 -2.486158025463422, -3.431209327975909 -5.5354707250992465, -1.3126282364130022 -7.957599892020226 C0.8059528551499047 -10.379729058941205, 10.882628734310467 -16.32836609939734, 13.755612291693687 -15.399067654013633 C16.628595849076905 -14.469769208629925, 15.556682657599449 -4.168101683656374, 15.925273107886314 -2.3818092197179794" stroke="#000000" stroke-width="1" fill="none"></path></g></g><g transform="translate(684 12) rotate(0 18 13)"><text x="0" y="18" font-family="Virgil, Segoe UI Emoji" font-size="20px" fill="#000000" text-anchor="start" style="white-space: pre;" direction="ltr">Bob</text></g><g transform="translate(67 10) rotate(0 22 13)"><text x="0" y="18" font-family="Virgil, Segoe UI Emoji" font-size="20px" fill="#000000" text-anchor="start" style="white-space: pre;" direction="ltr">Alice</text></g><g><g transform="translate(388.5 170.5) rotate(0 9.470652547721897 -4.581883090387294)"><path d="M0.8492795895785095 1.1750685442239044 C0.9877084564417602 -0.8917657664666574, -1.0072904237856468 -10.249379890287916, 0.13369823209941378 -12.852638329192995 C1.2746868879844744 -15.455896768098075, 6.316649245346587 -14.490944541618228, 7.695211524888873 -14.444482089206577 C9.07377380443116 -14.398019636794926, 6.749364879851539 -12.907884686316052, 8.405071909353136 -12.573863614723086 C10.060778938854734 -12.23984254313012, 16.331640171135465 -14.930632453287641, 17.629453701898456 -12.440355659648777 C18.927267232661446 -9.950078866009912, 16.64084735227128 0.10920815356075764, 16.19195309393108 2.3677971471101045 C15.74305883559088 4.626386140659451, 16.886780531331897 1.3163612553228936, 14.936088151857257 1.1111783016473056 C12.985395772382617 0.9059953479717177, 6.807489024723569 1.3693790980925162, 4.48779881708324 1.1366994250565767 C2.16810860944291 0.9040197520206372, 1.8317773571858806 0.024808719630042775, 1.017946906015277 -0.2848997365683317 M-0.16398735523223884 0.7463755846023559 C-0.11090462207794197 -1.0636789909998574, -1.8997367652257284 -8.886727544466654, -0.7441556596755983 -11.237848200798034 C0.4114254458745319 -13.588968857129414, 5.168034383455912 -13.358942866325378, 6.769499278068542 -13.360348353385925 C8.370964172681173 -13.361753840446472, 6.72223294099172 -11.513705388704935, 8.864633708000184 -11.246281123161316 C11.007034475008648 -10.978856857617696, 18.150515157381694 -14.406171361605326, 19.623903880119325 -11.755802760124206 C21.097292602856957 -9.105434158643087, 18.472203949292503 2.2035029649734494, 17.704966044425966 4.655930485725403 C16.93772813955943 7.108358006477356, 17.35162223339081 3.5901613410313926, 15.020476450920105 2.9587623643875123 C12.689330668449402 2.327363387743632, 6.241426259676615 1.6636475165685018, 3.7180913496017456 0.8675366258621215 C1.1947564395268757 0.07142573515574124, 0.47260561148325597 -1.4145280917485554, -0.11953300952911383 -1.817902979850769" stroke="#000000" stroke-width="1" fill="none"></path></g></g><g><g transform="translate(391.5 154.5) rotate(0 7.846206047997043 -3.6112632745154087)"><path d="M1.1750685442239044 0.13369823209941378 C1.2749009002000091 -0.558646445348859, -1.4160465569545824 -1.6833507546534137, 0.14736167080700402 -3.3047884751111267 C1.7107698985685904 -4.92622619556884, 7.842388791715106 -10.750635120148461, 10.555517910793423 -9.594928090646864 C13.26864702987174 -8.439221061145266, 15.425448647017278 1.331640171135465, 16.426136385276912 3.6294537018984556 M0.3328408006019892 -0.8417141413874925 C0.32706385465338844 -1.4306720262952148, -2.2605898683083554 -0.11353311262403931, -0.7233189156465232 -1.9273771733231841 C0.813952037015309 -3.741221234022329, 6.619787191667905 -12.802470998583983, 9.556466516572982 -11.724778505582362 C12.493145841478059 -10.647086012580742, 15.925760685919473 1.80407001890863, 16.896757033783942 4.538777784686536" stroke="#000000" stroke-width="1" fill="none"></path></g></g><g><g transform="translate(396.5 164.5) rotate(0 -0.719405300505457 0.019356333911417778)"><path d="M0.13369823209941378 0.14736167080700402 C-0.05864644534885896 -0.1225634347647428, -0.3500174213200807 -0.49094454161822787, -0.30478847511112683 -0.4444820892065763 M-1.2552489253878594 -0.8208773973584176 C-1.7065958473086358 -0.4181454351544381, -1.5973954364657401 1.0048863622546196, -1.4128478881716728 0.8595900651812554" stroke="#000000" stroke-width="1" fill="none"></path></g></g><g transform="translate(209 47) rotate(0 39 13)"><text x="0" y="18" font-family="Virgil, Segoe UI Emoji" font-size="20px" fill="#000000" text-anchor="start" style="white-space: pre;" direction="ltr">Network</text></g><g transform="translate(504 45) rotate(0 39 13)"><text x="0" y="18" font-family="Virgil, Segoe UI Emoji" font-size="20px" fill="#000000" text-anchor="start" style="white-space: pre;" direction="ltr">Network</text></g><g transform="translate(32 189) rotate(0 51.5 13)"><text x="0" y="18" font-family="Virgil, Segoe UI Emoji" font-size="20px" fill="#087f5b" text-anchor="start" style="white-space: pre;" direction="ltr">Decrypted</text></g><g transform="translate(657.5 189) rotate(0 51.5 13)"><text x="0" y="18" font-family="Virgil, Segoe UI Emoji" font-size="20px" fill="#087f5b" text-anchor="start" style="white-space: pre;" direction="ltr">Decrypted</text></g><g transform="translate(204 168) rotate(0 47.5 13)"><text x="0" y="18" font-family="Virgil, Segoe UI Emoji" font-size="20px" fill="#c92a2a" text-anchor="start" style="white-space: pre;" direction="ltr">Encrypted</text></g><g transform="translate(352.5 201) rotate(0 47.5 13)"><text x="0" y="18" font-family="Virgil, Segoe UI Emoji" font-size="20px" fill="#c92a2a" text-anchor="start" style="white-space: pre;" direction="ltr">Encrypted</text></g><g transform="translate(502.5 167) rotate(0 47.5 13)"><text x="0" y="18" font-family="Virgil, Segoe UI Emoji" font-size="20px" fill="#c92a2a" text-anchor="start" style="white-space: pre;" direction="ltr">Encrypted</text></g><g transform="translate(622 243) rotate(0 84 10.5)"><text x="168" y="15" font-family="Virgil, Segoe UI Emoji" font-size="16px" fill="#adb5bd" text-anchor="end" style="white-space: pre;" direction="ltr">Made with Excalidraw</text></g></svg>